<svg width="80" height="30" fill="none" xmlns="http://www.w3.org/2000/svg">
  <path d="M11.187 4.394v11.758H7.861v-4.586H3.326v4.586H0V4.393h3.326v4.418h4.535V4.394h3.326ZM23.36 11.617c0 .022-.017.285-.05.79h-6.618c.134.47.392.833.772 1.091.392.246.88.37 1.462.37.436 0 .812-.062 1.125-.185.325-.123.65-.325.974-.605l1.68 1.747c-.884.986-2.178 1.478-3.88 1.478-1.064 0-2-.201-2.805-.605-.807-.403-1.434-.963-1.882-1.68-.437-.716-.655-1.528-.655-2.435 0-.896.213-1.697.638-2.402A4.56 4.56 0 0 1 15.92 7.5c.761-.403 1.618-.605 2.57-.605.907 0 1.73.19 2.47.572.738.37 1.32.912 1.746 1.629.437.705.655 1.545.655 2.52Zm-4.854-2.453c-.493 0-.907.14-1.243.42-.325.28-.532.66-.622 1.142h3.73c-.09-.481-.303-.862-.639-1.142-.325-.28-.734-.42-1.226-.42ZM25.504 3.688h3.191v12.464h-3.191V3.688ZM31.441 3.688h3.192v12.464h-3.192V3.688Z" fill="#111518"/>
  <path d="M3.625 24.64v3.5h-.81v-1.435h-1.59v1.435h-.81v-3.5h.81v1.38h1.59v-1.38h.81Zm4.438 2.85v.65h-2.71v-3.5h2.645v.65h-1.84v.76h1.625v.63H6.158v.81h1.905Zm1.545-2.85h.81v2.84h1.755v.66H9.608v-3.5Zm3.917 0h.81v2.84h1.755v.66h-2.565v-3.5Zm3.918 0h.81v3.5h-.81v-3.5Zm3.69 3.56c-.276 0-.545-.037-.805-.11a1.916 1.916 0 0 1-.62-.295l.275-.61c.15.11.329.198.535.265.207.066.414.1.62.1.23 0 .4-.034.51-.1.11-.07.165-.162.165-.275a.251.251 0 0 0-.1-.205.688.688 0 0 0-.25-.135 4.72 4.72 0 0 0-.41-.11 5.68 5.68 0 0 1-.655-.19 1.083 1.083 0 0 1-.44-.305c-.12-.14-.18-.327-.18-.56 0-.204.055-.387.165-.55.11-.167.275-.299.495-.395a2.05 2.05 0 0 1 .815-.145c.224 0 .442.026.655.08.214.053.4.13.56.23l-.25.615a1.952 1.952 0 0 0-.97-.275c-.226 0-.395.036-.505.11a.337.337 0 0 0-.16.29c0 .12.062.21.185.27.127.056.319.113.575.17.267.063.485.126.655.19.17.063.315.163.435.3.124.136.185.321.185.555 0 .2-.056.383-.17.55-.11.163-.276.293-.5.39a2.048 2.048 0 0 1-.815.145Zm6.149-3.56v3.5h-.81v-1.435h-1.59v1.435h-.81v-3.5h.81v1.38h1.59v-1.38h.81Z" fill="#FF6B09"/>
  <path d="M34.036 27.49v.65h-2.71v-3.5h2.645v.65h-1.84v.76h1.625v.63H32.13v.81h1.905Zm4.754-2.85v3.5h-.665l-1.745-2.125v2.125h-.8v-3.5h.67l1.74 2.125V24.64h.8Zm4.093 1.695h.74v1.42c-.19.143-.41.253-.66.33-.25.076-.501.115-.755.115-.363 0-.69-.077-.98-.23a1.772 1.772 0 0 1-.684-.645 1.804 1.804 0 0 1-.245-.935c0-.347.081-.657.245-.93.166-.277.396-.492.69-.645.293-.157.623-.235.99-.235.306 0 .585.051.835.155.25.103.46.253.63.45l-.52.48a1.203 1.203 0 0 0-.905-.395c-.224 0-.422.046-.596.14a1.005 1.005 0 0 0-.404.395c-.097.17-.146.365-.146.585 0 .216.049.41.145.58.097.17.23.303.4.4.174.093.37.14.59.14.234 0 .444-.05.63-.15v-1.025Zm2.393-1.695h.81v2.84h1.755v.66h-2.565v-3.5Zm3.917 0h.81v3.5h-.81v-3.5Zm3.691 3.56c-.276 0-.545-.037-.805-.11a1.918 1.918 0 0 1-.62-.295l.275-.61c.15.11.328.198.535.265.207.066.413.1.62.1.23 0 .4-.034.51-.1.11-.07.165-.162.165-.275a.251.251 0 0 0-.1-.205.686.686 0 0 0-.25-.135 4.71 4.71 0 0 0-.41-.11 5.686 5.686 0 0 1-.655-.19 1.083 1.083 0 0 1-.44-.305c-.12-.14-.18-.327-.18-.56 0-.204.055-.387.165-.55.11-.167.275-.299.495-.395a2.05 2.05 0 0 1 .815-.145c.224 0 .442.026.655.08.214.053.4.13.56.23l-.25.615a1.952 1.952 0 0 0-.97-.275c-.227 0-.395.036-.505.11a.337.337 0 0 0-.16.29c0 .12.062.21.185.27.127.056.319.113.575.17.267.063.485.126.655.19.17.063.315.163.435.3.123.136.185.321.185.555 0 .2-.056.383-.17.55-.11.163-.276.293-.5.39a2.048 2.048 0 0 1-.815.145Zm6.149-3.56v3.5h-.81v-1.435h-1.59v1.435h-.81v-3.5h.81v1.38h1.59v-1.38h.81ZM66.295 13.582v2.57h-9.44V4.393h9.222v2.57h-5.93v1.982h5.224v2.486h-5.224v2.15h6.148ZM80 4.393v11.759h-2.738l-5.19-6.266v6.266h-3.26V4.393h2.739l5.19 6.266V4.393H80Z" fill="#111518"/>
  <g clip-path="url(#a)" fill="#FF6B09">
    <path d="M52.151 10.05c-.172-.385-.408-.763-.755-1.201-.873-1.098-1.14-3.548-1.143-3.571a.296.296 0 0 0-.204-.25.3.3 0 0 0-.314.086c-1.042 1.165-.604 2.966-.367 3.685.065.197.136.429.186.664.385 1.9-.358 2.76-.533 2.934-.169.046-.284.023-.39-.091-.368-.403-.49-1.721-.318-3.44.036-.349.027-.663-.023-.957-.362-2.111-1.69-3.466-2.029-3.94-.93-1.375-1.024-3.663-1.027-3.683a.296.296 0 0 0-.462-.232c-1.552 1.054-1.419 3.594-1.202 5.013.05.328.148.663.316 1.086.602 1.513-.118 3.465-.124 3.483-.006.018-.012.032-.015.05-.091.482-.245.77-.417.77a.202.202 0 0 1-.056-.01c-.21-.043-.32-.267-.323-.46-.012-2.505-2.526-3.348-2.553-3.357a.295.295 0 0 0-.314.088.289.289 0 0 0-.041.323c.03.062.124.332.06 1.286a10.966 10.966 0 0 1-.466 2.52 12.274 12.274 0 0 0-.497 3.885c.46 5.002 7.653 5.878 11.922 3.06.467-.308.85-.66 1.13-1.048 1.576-2.173.65-5.125-.04-6.693ZM41.21 14.828a.293.293 0 0 1-.279.309h-.017a.295.295 0 0 1-.297-.277c-.026-.428-.02-.878.012-1.365a.296.296 0 0 1 .592.041 9.471 9.471 0 0 0-.011 1.292Zm.145-2.602a.294.294 0 0 1-.293.259c-.012 0-.024 0-.039-.003a.296.296 0 0 1-.258-.326l.143-1.134a.299.299 0 0 1 .331-.255c.163.02.279.167.258.329l-.142 1.13ZM50.148 4.018a.294.294 0 0 1-.247-.335c.018-.12.125-.73.416-1.037a.297.297 0 0 1 .418-.014c.12.111.126.297.014.415-.123.13-.228.503-.263.726a.296.296 0 0 1-.338.245ZM39.353 5.48c-.057-.218-.198-.578-.333-.696a.292.292 0 0 1-.028-.414.297.297 0 0 1 .418-.027c.32.277.486.875.516.991a.294.294 0 0 1-.213.358.297.297 0 0 1-.36-.212Z"/>
  </g>
  <defs>
    <clipPath id="a">
      <path fill="#fff" transform="translate(38.88)" d="M0 0h14.214v19.382H0z"/>
    </clipPath>
  </defs>
</svg>
