<?xml version="1.0" standalone="no"?>
<!DOCTYPE svg PUBLIC "-//W3C//DTD SVG 20010904//EN"
 "http://www.w3.org/TR/2001/REC-SVG-20010904/DTD/svg10.dtd">
<svg version="1.0" xmlns="http://www.w3.org/2000/svg"
 width="512.000000pt" height="512.000000pt" viewBox="0 0 512.000000 512.000000"
 preserveAspectRatio="xMidYMid meet">
<metadata>
Created by potrace 1.14, written by Peter Selinger 2001-2017
</metadata>
<g transform="translate(0.000000,512.000000) scale(0.100000,-0.100000)"
fill="#000000" stroke="none">
<path d="M2235 5098 c-133 -94 -263 -307 -300 -493 -29 -149 -39 -244 -39
-400 0 -103 10 -277 18 -321 2 -10 7 -44 11 -74 9 -75 39 -187 79 -295 44
-118 66 -227 69 -351 3 -92 -4 -212 -16 -274 -3 -14 -10 -54 -17 -88 -6 -35
-31 -134 -56 -220 -50 -173 -77 -222 -122 -222 -58 1 -90 51 -97 150 -3 41 -7
86 -10 100 -2 14 -7 39 -10 56 -31 192 -180 414 -365 544 -19 14 -37 27 -40
30 -30 30 -241 130 -275 130 -21 0 -40 -9 -55 -25 -24 -26 -24 -35 -1 -145 9
-42 7 -330 -3 -375 -2 -11 -7 -47 -10 -80 -13 -124 -53 -307 -111 -510 -45
-156 -76 -303 -95 -440 -6 -44 -13 -93 -15 -110 -7 -55 -18 -259 -18 -350 -1
-202 41 -381 129 -556 112 -223 335 -437 589 -565 136 -69 350 -141 495 -167
30 -6 83 -15 125 -22 157 -26 586 -27 720 -1 11 2 42 7 69 10 42 6 96 17 206
41 391 85 826 306 1032 523 334 353 402 902 192 1555 -67 206 -136 366 -203
467 -23 34 -41 65 -41 70 0 5 -3 10 -8 12 -4 2 -31 35 -60 73 -101 134 -196
367 -248 606 -16 76 -36 179 -40 209 -11 84 -25 164 -31 173 -13 21 -66 35
-95 25 -50 -18 -137 -161 -173 -283 -23 -81 -30 -141 -29 -265 0 -104 4 -148
23 -245 16 -85 22 -107 32 -127 5 -10 8 -18 5 -18 -3 0 4 -26 15 -57 11 -32
26 -83 34 -113 13 -51 19 -79 31 -155 3 -16 7 -82 8 -146 3 -102 -4 -170 -28
-289 -9 -44 -86 -189 -116 -220 -87 -89 -175 16 -212 255 -14 91 -17 428 -5
555 22 229 15 339 -33 505 -11 39 -22 79 -25 90 -6 26 -95 247 -105 260 -4 6
-20 33 -36 60 -15 28 -39 68 -53 90 -14 22 -31 51 -38 63 -14 27 -169 234
-203 272 -54 60 -119 178 -165 300 -37 96 -88 283 -100 360 -4 25 -8 47 -10
50 -2 3 -6 33 -10 65 -3 33 -8 67 -10 75 -3 8 -7 53 -11 99 -7 103 -16 129
-49 141 -38 14 -56 12 -90 -12z m-888 -2836 c12 -7 25 -21 28 -33 6 -18 0
-116 -10 -169 -2 -10 -6 -45 -10 -77 -3 -32 -8 -71 -10 -88 -5 -44 -49 -78
-89 -70 -56 12 -69 39 -62 125 4 41 8 89 11 105 2 17 9 64 15 105 15 106 57
139 127 102z m-62 -664 c20 -23 21 -34 18 -229 l-2 -204 -27 -23 c-19 -17 -34
-22 -57 -18 -66 10 -74 44 -71 274 2 133 6 167 20 192 27 45 84 49 119 8z"/>
</g>
</svg>
