<svg aria-hidden="true" xmlns="http://www.w3.org/2000/svg">
    <defs>
    <symbol id="icon-burger" viewBox="0 0 48 32">
<path d="M0 5.334v-5.334h48v5.334h-48zM0 18.666h48v-5.332h-48v5.332zM0 32h48v-5.334h-48v5.334z"></path>
</symbol>
    <symbol id="icon-menu-close" viewBox="0 0 32 32">
<path fill="none" stroke="#fff" style="stroke: var(--color1, #fff)" stroke-linejoin="miter" stroke-linecap="butt" stroke-miterlimit="4" stroke-width="3.7647" d="M1.882 29.169l27.287-27.287M29.169 29.169l-27.287-27.287"></path>
</symbol>
      <symbol id="icon-phone" viewBox="0 0 33 32">
        <path fill="#ff6b09" style="fill:var(--color1, #ff6b09)" d="M4.817.003a2.072 2.072 0 0 0-1.44.674L.693 3.627c.004-.009-.01-.007-.087.1a.627.627 0 0 0-.093.182c-1.092 3.48-.36 7.308 1.424 10.949s4.63 7.125 7.897 9.984c3.267 2.859 6.953 5.096 10.468 6.205s6.922 1.095 9.448-.737a.697.697 0 0 0 .077-.067c.066-.066.068-.075.058-.065l.01-.013 2.671-2.938a2.09 2.09 0 0 0-.138-2.938l-6.337-5.763a2.09 2.09 0 0 0-2.938.137l-2.867 3.153c-2.327-.674-4.317-1.816-6.231-3.557s-3.24-3.615-4.131-5.869l2.866-3.153a2.09 2.09 0 0 0-.137-2.938L6.316.536A2.07 2.07 0 0 0 4.818.001h-.001zm.061 1.293a.772.772 0 0 1 .559.208l6.337 5.763a.762.762 0 0 1 .052 1.097l-3.169 3.482a.664.664 0 0 0-.129.661c.962 2.624 2.513 4.777 4.648 6.719s4.423 3.283 7.126 3.992a.65.65 0 0 0 .647-.192l3.169-3.483a.76.76 0 0 1 1.096-.051l6.338 5.763a.76.76 0 0 1 .051 1.096l-2.649 2.912c-2.072 1.488-4.992 1.571-8.262.539-3.282-1.036-6.846-3.182-9.999-5.942s-5.898-6.131-7.585-9.573C1.438 10.88.833 7.435 1.751 4.399l2.588-2.844a.775.775 0 0 1 .538-.26z"/>
      </symbol>
      <symbol id="icon-en" viewBox="0 0 59 32">
        <path d="M25.341 23.585v6.326H2.103V.967h22.701v6.326H10.208v4.879h12.86v6.12h-12.86v5.293h15.134zM59.077.968v28.944h-6.74L39.56 14.489v15.423h-8.022V.968h6.74l12.777 15.423V.968h8.022z"/>
      </symbol>
      <symbol id="icon-hell" viewBox="0 0 80 32">
        <path d="M25.571 3.185v26.877h-7.602V19.58H7.602v10.482H0V3.185h7.602v10.098h10.367V3.185h7.602zM53.395 19.695c0 .051-.038.653-.115 1.805H38.152c.307 1.075.896 1.907 1.766 2.496.896.563 2.009.845 3.341.845.998 0 1.856-.141 2.572-.422.742-.282 1.485-.742 2.227-1.382l3.84 3.993c-2.022 2.253-4.979 3.379-8.869 3.379-2.432 0-4.569-.461-6.412-1.382s-3.276-2.201-4.3-3.84c-.998-1.638-1.497-3.494-1.497-5.567 0-2.048.486-3.878 1.459-5.491.998-1.638 2.368-2.918 4.108-3.84s3.699-1.382 5.874-1.382c2.073 0 3.955.435 5.644 1.305a9.503 9.503 0 0 1 3.993 3.724c.998 1.613 1.497 3.532 1.497 5.759zm-11.096-5.606c-1.126 0-2.073.32-2.841.96-.742.64-1.216 1.51-1.421 2.611h8.524c-.205-1.101-.691-1.971-1.459-2.611-.742-.64-1.677-.96-2.803-.96zM58.294 1.573h7.295v28.489h-7.295V1.573zM71.866 1.573h7.295v28.489h-7.295V1.573z"/>
      </symbol>
      <symbol id="icon-study-program" viewBox="0 0 31 32">
        <path  d="m30.151 4.961-.001-.003a.284.284 0 0 0-.06-.09L25.284.062a.237.237 0 0 0-.039-.032l-.001-.001-.009-.005a.274.274 0 0 0-.034-.019l-.002-.001L25.187 0a.28.28 0 0 0-.098-.02l-.005-.001H3.913a.284.284 0 0 0-.284.284v29.311a.25.25 0 0 0 .006.055c.001.008.005.015.007.023l.009.03.013.025.013.023a.33.33 0 0 0 .032.04l.003.003 2.164 2.165a.283.283 0 0 0 .402 0l1.965-1.964 1.963 1.964c.051.052.122.084.201.084s.15-.032.201-.084l1.963-1.963 1.965 1.963a.285.285 0 0 0 .402 0l1.963-1.963 1.963 1.963a.283.283 0 0 0 .402 0l1.965-1.964 1.963 1.964c.051.052.122.084.201.084s.15-.032.201-.084l1.963-1.963 1.965 1.963a.283.283 0 0 0 .402 0l2.165-2.165c.005-.004.007-.009.011-.013.008-.009.017-.019.023-.029.007-.009.011-.02.017-.03l.009-.019c.006-.013.009-.027.012-.04l.005-.013a.256.256 0 0 0 .006-.057V5.069a.314.314 0 0 0-.023-.111l.001.002zM25.367.949l3.835 3.835h-3.835V.949zm4.237 28.507-1.88 1.88-1.965-1.964a.283.283 0 0 0-.402 0l-1.964 1.964-1.963-1.964a.283.283 0 0 0-.402 0l-1.965 1.964-1.963-1.964c-.051-.052-.122-.084-.201-.084s-.15.032-.201.084l-1.963 1.964-1.965-1.964a.283.283 0 0 0-.402 0l-1.963 1.964-1.964-1.964a.287.287 0 0 0-.402 0l-1.965 1.964-1.88-1.88V.547h20.603v4.522c0 .157.127.284.284.284h4.521v24.103z"/>
        <path  d="M6.314 3.234h9.303a.284.284 0 1 0 0-.568H6.313a.284.284 0 1 0 0 .568zm0 1.757h14.919a.284.284 0 1 0 0-.568H6.314a.284.284 0 1 0 0 .568zM6.03 6.568v9.199c0 .157.127.284.284.284h21.173a.284.284 0 0 0 .284-.284V6.568a.284.284 0 0 0-.284-.284H6.314a.284.284 0 0 0-.284.284zm6.279.284h14.893v2.445H12.309V6.852zm0 3.013h14.893v2.444H12.309V9.865zm0 3.012h14.893v2.605H12.309v-2.605zM6.598 6.852h5.143v2.445H6.598V6.852zm0 3.013h5.143v2.444H6.598V9.865zm0 3.012h5.143v2.605H6.598v-2.605zm20.889 4.452H6.314a.284.284 0 0 0-.284.284v9.198a.284.284 0 1 0 .568 0v-2.889h5.142v2.889a.284.284 0 1 0 .568 0v-2.889h14.893v2.889a.284.284 0 1 0 .568 0v-9.199a.283.283 0 0 0-.283-.283h-.001zM11.74 23.353H6.599V20.91h5.143v2.443zm0-3.012H6.599v-2.444h5.143v2.444zm15.462 3.012H12.309V20.91h14.893v2.443zm0-3.012H12.309v-2.444h14.893v2.444zM2.281-.021a.284.284 0 0 0-.284.284v29.311a.284.284 0 1 0 .568 0V.263a.284.284 0 0 0-.284-.284H2.28zm-1.562 0H.718a.284.284 0 0 0-.284.284v29.311a.284.284 0 1 0 .568 0V.263a.284.284 0 0 0-.283-.284z"/>
      </symbol>
      <symbol id="icon-campfire" viewBox="0 0 26 32">
        <path fill="#ff6b09" style="fill:var(--color1, #ff6b09)" d="M22.642 16.08c-.274-.616-.653-1.221-1.208-1.922-1.397-1.757-1.824-5.677-1.829-5.714a.474.474 0 0 0-.323-.399l-.003-.001a.481.481 0 0 0-.502.137c-1.667 1.864-.966 4.746-.587 5.896.104.315.218.686.298 1.062.616 3.04-.573 4.416-.853 4.694-.27.074-.454.037-.624-.146-.589-.645-.784-2.754-.509-5.504a5.597 5.597 0 0 0-.037-1.531c-.579-3.378-2.704-5.546-3.248-6.302C11.731 4.147 11.58.486 11.575.454a.473.473 0 0 0-.741-.37l.002-.001C8.353 1.771 8.567 5.835 8.913 8.105c.08.525.237 1.061.507 1.738.96 2.421-.19 5.544-.2 5.573s-.019.051-.024.08c-.146.771-.392 1.232-.667 1.232a.312.312 0 0 1-.092-.017l.002.001c-.336-.069-.512-.427-.517-.736-.019-4.008-4.042-5.357-4.085-5.371a.474.474 0 0 0-.502.14l-.001.001a.46.46 0 0 0-.064.519l-.001-.003c.048.099.198.531.096 2.058a17.517 17.517 0 0 1-.78 4.156l.034-.124c-.511 1.667-.806 3.583-.806 5.568 0 .228.004.454.012.68l-.001-.033c.736 8.003 12.245 9.405 19.074 4.896.749-.493 1.36-1.056 1.811-1.677 2.52-3.477 1.037-8.2-.067-10.709zM5.136 23.725l.001.026a.47.47 0 0 1-.446.468h-.032a.472.472 0 0 1-.471-.442v-.001a17.249 17.249 0 0 1 .019-2.184.48.48 0 0 1 .508-.437h-.001a.474.474 0 0 1 .441.472l-.001.031v-.001a14.84 14.84 0 0 0-.016 2.11l-.002-.043zm.232-4.163a.47.47 0 0 1-.467.414h-.002c-.019 0-.038 0-.062-.005a.475.475 0 0 1-.413-.524v.002l.229-1.814a.479.479 0 0 1 .532-.408h-.002a.471.471 0 0 1 .413.526l-.227 1.808zM19.437 6.429a.471.471 0 0 1-.395-.538v.003c.029-.192.2-1.168.666-1.659a.475.475 0 0 1 .669-.022.465.465 0 0 1 .022.664c-.197.208-.365.805-.421 1.162a.475.475 0 0 1-.543.392h.003zM2.165 8.768c-.091-.349-.317-.925-.533-1.114a.466.466 0 0 1-.045-.662.473.473 0 0 1 .669-.043h-.001c.512.443.778 1.4.826 1.586a.47.47 0 0 1-.337.572l-.003.001a.474.474 0 0 1-.576-.335l-.001-.003z"/>
      </symbol>
      <symbol id="icon-ok" viewBox="0 0 41 32">
        <path fill="#ff6b09" style="fill:var(--color1, #ff6b09)" d="M34.457 1.513c-1.486.663-2.907 1.477-4.265 2.379-2.731 1.797-5.227 3.936-7.57 6.217a84.919 84.919 0 0 0-6.455 7.124l-.125.16-2.823 3.467L3.624 6.481.001 16.522l12.978 15.477c1.257-2.551 2.471-5.07 3.662-7.257.297-.558.606-1.081.901-1.614 0 0 1.522-2.674 1.925-3.351a80.284 80.284 0 0 1 5.381-8.016l-.144.196c1.909-2.491 3.984-4.869 6.336-6.962a28.433 28.433 0 0 1 3.749-2.871A20.523 20.523 0 0 1 38.91.045l.145-.047a21.164 21.164 0 0 0-4.722 1.568l.13-.055z"/>
      </symbol>
      <symbol id="icon-adv-icon1" viewBox="0 0 31 32">
        <path fill="#ff6b09" style="fill:var(--color1, #ff6b09)" d="M7.953 23.273h12.362c.061-1.41-.04-3.749-.907-4.862l-.031-.04-1.894-.951c.041-.139.062-.266.07-.359a.664.664 0 0 0-.046-.313c-.313-.748-.974-1.141-1.338-1.309.111-.223.182-.463.217-.708a.608.608 0 0 0 .425-.435l.001-.004.221-.898a.61.61 0 0 0-.071-.465l.002.003a.585.585 0 0 0-.135-.153l-.001-.001c.623-1.416-.421-2.751-.478-2.822-1.131-1.222-2.559-.994-2.634-.98-2.062.431-2.857 2.011-2.408 3.864a.603.603 0 0 0-.138.558l-.001-.004.222.899a.607.607 0 0 0 .423.437c.066.456.256.86.534 1.185l-.003-.003v.712c-2.958 1.515-1.084.548-3.454 1.748-.005.022-1.112 1.199-.948 4.688l.01.213zm11.932-.447h-2.034v-.854l1.346-3.081c.674 1.119.699 3.255.689 3.935zm-2.776-5.803c-.078.902-.573.63-.878 1.324a1.025 1.025 0 0 1-.248-.92c.117-.622-.263-.807-.169-1.461l.014-.015v-.002c.008-.009.083-.098.105-.126.805.351 1.193 1.003 1.177 1.2zm-4.319-.709c.366.258.821.413 1.312.413.469 0 .906-.141 1.269-.383l-.008.005c.051.514.252.617.181.995-.012.059-.02.13-.025.203v.005l-1.386 1.562-1.771-1.997.428-.223v-.579zm-.557-1.911v-2.388c.215-.399.51-.688.875-.862.978.554 2.105 1.38 2.86 2.212-.001 1.059.003 1.062-.004 1.149l-.001.006a1.869 1.869 0 0 1-1.863 1.759 1.873 1.873 0 0 1-1.867-1.865v-.011.001zm-.276 2.929 2.177 2.454 1.462-1.647c.033.096.08.187.134.275l-1.595 1.995-2.378-2.975.202-.102zm4.457-3.289v-.691l.166-.191c.009.35.047-.063-.166.882zm-2.616-4.628c.088.006 1.276-.181 2.215.833.037.046.801 1.031.494 2.108-.105-.479-.288-1.093-.578-1.386l-.316.315c.286.289.474 1.171.545 1.628-1.311-1.372-3.002-2.24-3.025-2.254-.085.053-.801.189-1.32 1.199l-.025.048v.742l-.066.001c-.33-1.594.302-2.861 2.076-3.233zm-2.123 3.693.113.456v.479l-.187-.756c-.027-.113.056-.156.074-.178zm-.327 4.53 2.786 3.485 1.886-2.358c.205.184.304.21.738.433l-.147-.498c-.037-.126.11-.329.199-.422.2-.11.365-.262.485-.446l.003-.005 1.538.772-1.431 3.277v.948h-6.543v-.948L9.43 18.599l1.917-.962zm-2.277 1.253 1.346 3.08v.854H8.383c-.01-.68.015-2.815.689-3.934z"/>
        <path fill="none" stroke="#ff6b09" style="stroke:var(--color1, #ff6b09)" stroke-width=".615" d="M31.077 4.615V.307H.308v31.385h30.769v-4.308"/>
      </symbol>
      <symbol id="icon-open-book" viewBox="0 0 46 32">
        <path fill="#fff" style="fill:var(--color2, #fff)" d="M20.267 4.608H6.627v1.021h13.64V4.608zm0 3.808H8.669v1.021h11.597V8.416zm0 3.808H6.627v1.021h13.64v-1.021zm0 3.808H8.669v1.021h11.597v-1.021zm0 3.808H6.627v1.021h13.64V19.84zm0 3.808H8.669v1.021h11.597v-1.021zM38.99 4.608H25.35v1.021h13.64V4.608zm-2.043 3.808H25.35v1.021h11.597V8.416zm2.043 3.808H25.35v1.021h13.64v-1.021zm-2.043 3.808H25.35v1.021h11.597v-1.021zm2.043 3.808H25.35v1.021h13.64V19.84zm-2.043 3.808H25.35v1.021h11.597v-1.021z"/>
        <path fill="#fff" style="fill:var(--color2, #fff)" d="M43.915 3.445h-1.872V.633a.511.511 0 0 0-.511-.511H26.25a3.95 3.95 0 0 0-3.431 1.991l-.01.019A3.955 3.955 0 0 0 19.368.121H4.086a.511.511 0 0 0-.511.511v2.812H1.702a.511.511 0 0 0-.511.511v27.411c0 .282.229.511.511.511h42.213a.51.51 0 0 0 .51-.511V3.955a.511.511 0 0 0-.511-.511zM26.267 1.144H41.02v27.349H25.178c-.703 0-1.405.296-1.859.68V4.076a2.932 2.932 0 0 1 2.932-2.932h.015-.001zm-21.672 0h14.774a2.924 2.924 0 0 1 2.922 2.824v.005c.001.022.003.091.007.113v25.087a2.987 2.987 0 0 0-1.852-.678H4.595V1.145zM2.213 4.467h1.362v24.538c0 .282.229.511.511.511h16.36c.779 0 1.531.511 1.772 1.341H2.213V4.468zm41.192 26.389H23.4a1.85 1.85 0 0 1 1.775-1.341H41.532a.511.511 0 0 0 .511-.511V4.466h1.361v26.389z"/>
      </symbol>
      <symbol id="icon-vk" viewBox="0 0 32 32">
        <path fill="#436eab" style="fill:var(--color3, #436eab)" d="M27.541 18.46c1.06 1.037 2.181 2.012 3.133 3.152.421.508.819 1.03 1.123 1.619.432.836.042 1.757-.709 1.807l-4.661-.002c-1.202.099-2.161-.384-2.969-1.206-.645-.658-1.243-1.358-1.863-2.037a4.456 4.456 0 0 0-.824-.736l-.015-.01c-.637-.413-1.189-.287-1.553.377-.37.676-.454 1.423-.491 2.176-.05 1.098-.382 1.387-1.485 1.436-2.356.112-4.593-.245-6.67-1.434-1.833-1.049-3.253-2.528-4.489-4.203C3.661 16.137 1.817 12.554.161 8.87c-.373-.831-.1-1.276.815-1.292 1.521-.03 3.042-.028 4.564-.002.619.009 1.027.363 1.266.947.822 2.023 1.829 3.948 3.093 5.732.336.475.679.949 1.168 1.284.541.37.953.247 1.206-.354.162-.382.233-.794.269-1.202.121-1.408.137-2.812-.075-4.213-.13-.876-.623-1.442-1.495-1.609-.446-.084-.38-.25-.164-.505.374-.437.727-.711 1.429-.711h5.269c.829.164 1.013.537 1.127 1.371l.004 5.853c-.01.323.161 1.282.743 1.495.465.153.772-.22 1.052-.515 1.262-1.339 2.162-2.922 2.965-4.56.357-.72.665-1.469.962-2.215.221-.555.565-.828 1.191-.816l5.07.004c.151 0 .303.002.448.028.855.145 1.089.512.826 1.347-.416 1.309-1.225 2.4-2.016 3.495-.846 1.17-1.749 2.301-2.589 3.477-.77 1.075-.709 1.617.247 2.55z"/>
      </symbol>
      <symbol id="icon-adv-icon2" viewBox="0 0 31 32">
        <path fill="#ff6b09" style="fill:var(--color1, #ff6b09)" d="M20.406 8.558H13.29a.841.841 0 0 0-.84.84v2.946l-5.286 2.219a.171.171 0 0 0-.023.306h.001l.674.403v4.3a.777.777 0 0 0-.603.756v.415c0 .095.077.172.172.172h1.207a.172.172 0 0 0 .172-.172v-.414a.777.777 0 0 0-.604-.756v-4.094l.533.319c-.016.123-.002-.214-.008 2.002 0 .729 1.866 1.119 3.765 1.141v3.356a.84.84 0 0 0 .839.839h7.117a.84.84 0 0 0 .839-.839V9.399a.846.846 0 0 0-.839-.84zM8.42 20.328v.242h-.863v-.242a.433.433 0 1 1 .863 0zm11.986 2.462H13.29a.494.494 0 0 1-.496-.494v-1.164h8.105v1.164c0 .27-.225.494-.494.494zm.494-2.002h-8.105v-1.847c.927-.01 3.767-.215 3.767-1.142-.001-1.392.002-1.957-.004-2.005l1.546-.926a.173.173 0 0 0-.021-.306h-.001l-5.286-2.219v-1.438h8.105v9.883zm-8.278-4.132c-.955 0-2.794.123-3.592.645.005-1.595-.055-1.491.141-1.627.496-.365 1.915-.62 3.451-.62.67 0 3.595.184 3.595.803v1.444c-.806-.526-2.636-.645-3.595-.645zm.173-7.258c0-.273.222-.495.495-.495h7.116c.273 0 .494.225.494.495v1.163h-8.105V9.398zm-.173 3.246 5.012 2.104-1.242.743c-.66-.655-2.844-.782-3.77-.782s-3.111.127-3.77.782l-1.242-.743 5.012-2.104zM9.03 17.799c0-.279 1.234-.799 3.592-.799 2.36 0 3.595.52 3.595.799s-1.234.799-3.595.799c-2.358 0-3.592-.52-3.592-.799z"/>
        <path fill="#ff6b09" style="fill:var(--color1, #ff6b09)" d="M16.848 21.392a.57.57 0 1 0 0 1.139.57.57 0 0 0 0-1.139zm0 .794a.226.226 0 0 1-.001-.45h.001a.226.226 0 0 1 .001.45zm.657-12.626h-1.314v.344h1.314V9.56z"/>
        <path fill="none" stroke="#ff6b09" style="stroke:var(--color1, #ff6b09)" stroke-width=".615" d="M31.077 4.615V.307H.308v31.385h30.769v-4.308"/>
      </symbol>
      <symbol id="icon-support" viewBox="0 0 33 32">
        <path  d="M1.993 12.558v2.831a.5.5 0 0 0 .189.39 11.03 11.03 0 0 0 6.837 2.362c.74 0 1.481-.077 2.207-.224a11.826 11.826 0 0 0 4.872 1.032h.018-.001c1.707 0 3.351-.349 4.891-1.032 3.091.625 6.384-.046 9.042-2.138a.495.495 0 0 0 .189-.39v-2.831c0-.415-.207-.794-.575-1.027l-3.867-2.176c.845-1.073 1.476-2.602 1.585-3.913.321-2.256-1.518-4.646-4.165-4.646a4.212 4.212 0 0 0-2.948 1.227c-.027.027-.057.049-.083.077-.024.025-.043.054-.067.08-.016.017-.029.035-.045.053C19.316.852 17.862 0 16.149 0c-.167 0-.33.011-.492.028-.01-.001-.018-.006-.028-.006-.092 0-.287.025-.391.055-.015.004-.027.015-.041.021a4.498 4.498 0 0 0-3.002 2.135l-.011.021A4.17 4.17 0 0 0 9.015.797h-.01.001c-3.908 0-5.641 4.612-2.557 8.581l-3.903 2.167a1.19 1.19 0 0 0-.553 1.014zm19.004 4.27c-.084.041-.167.085-.251.123l-.002.001a10.84 10.84 0 0 1-4.596 1.006h-.032.002-.025c-2.509 0-4.823-.837-6.677-2.248l.027.02v-2.87c0-.097.048-.184.103-.221l4.542-2.525c.565.48 1.287.832 2.035.832.721 0 1.499-.357 2.053-.843l4.487 2.52a.277.277 0 0 1 .131.237v2.87c-.52.395-1.108.76-1.729 1.069l-.064.029zm8.158-4.447a.203.203 0 0 1 .092.17V15.145a9.988 9.988 0 0 1-6.737 1.98c.419-.265.772-.515 1.112-.782l-.028.022a.495.495 0 0 0 .189-.39V12.86c0-.435-.218-.835-.61-1.087l-2.383-1.339.58-.321c.703.573 1.307.744 1.848.744.663 0 1.36-.325 1.878-.759l4.06 2.284zM23.217 1.788c1.38 0 2.593.902 3.021 2.142a3.698 3.698 0 0 1-2.235-1.14l-.002-.002a.497.497 0 0 0-.788.082l-.001.002a3.693 3.693 0 0 1-2.525 1.757l-.022.003v-.003l.001-.079c0-.202-.012-.402-.036-.598l.002.023-.007-.066a5.31 5.31 0 0 0-.131-.647l.009.038c.563-.902 1.609-1.513 2.713-1.513zm-2.66 3.855a4.648 4.648 0 0 0 3.156-1.751l.008-.01a4.684 4.684 0 0 0 2.702 1.056c-.007 1.792-1.471 4.927-3.207 4.927-1.337 0-2.478-1.912-2.905-3.238a8.15 8.15 0 0 0 .245-.983zm.1 3.73-.885.491-.895-.503c.331-.413.636-.893.896-1.413.251.527.551 1.01.885 1.425zM19.32 6.465c-.478 1.427-1.705 3.49-3.199 3.49-1.742 0-3.225-2.864-3.508-4.696.075-.019 2.429.127 4.049-2.001.822.688 1.931 1.143 3.011 1.188.013.647-.144 1.407-.353 2.019zM16.15.991c2.78 0 3.309 2.393 3.352 2.443a4.131 4.131 0 0 1-2.561-1.274l-.002-.002a.494.494 0 0 0-.788.085l-.001.002a4.095 4.095 0 0 1-2.385 1.86l-.029.007a4.23 4.23 0 0 1-1.14.153h-.028.001C12.705 2.444 14.166.992 16.15.992zm-3.689 6.947c.257.515.563 1.007.913 1.439l-.876.487-.907-.51c.344-.439.636-.929.869-1.415zm-3.454-6.15c1.125 0 2.155.571 2.729 1.514-.029.1-.107.498-.117.548a3.682 3.682 0 0 1-1.818-1.061l-.002-.002a.494.494 0 0 0-.787.085l-.001.002a3.717 3.717 0 0 1-3.177 1.815h-.001c.158-1.627 1.518-2.9 3.173-2.9zM5.876 5.677a4.699 4.699 0 0 0 3.635-1.786l.007-.01c.57.468 1.264.806 2.026.956l.029.005c.029.575.179 1.273.351 1.789-.274.84-.799 1.84-1.451 2.505-.005.004-.01.006-.013.01-.409.43-.989.719-1.445.719-1.593 0-2.841-2.508-3.14-4.188zm-2.891 6.881c0-.075.033-.139.067-.162l4.117-2.284c.247.206.303.229.353.265.484.323.928.483 1.533.483.645 0 1.233-.273 1.749-.694.029-.023.061-.045.089-.068l.587.33-2.446 1.361a1.271 1.271 0 0 0-.584 1.069V15.976c0 .152.07.295.19.389.317.249.727.539 1.083.761a10.017 10.017 0 0 1-6.737-1.98v-2.587z"/>
        <path  d="M31.259 20.781a2.042 2.042 0 0 0-1.102-.319c-.329 0-.641.077-.917.215l.012-.005-6.12 2.957a2.11 2.11 0 0 0-2.106-2.072l-3.51.001c-1.73-1.504-3.941-2.425-5.952-2.473-1.983-.047-3.762-.06-4.592-.064v-1.002H0v11.516h6.972v-1.379c1.911 1.098 6.939 3.846 9.325 3.846.053 0 .107-.001.157-.005 4.196-.235 14.091-7.198 14.743-7.66a2.083 2.083 0 0 0 1.034-1.796v-.006a2.06 2.06 0 0 0-.965-1.747l-.009-.005zM5.98 28.542H.992v-9.533H5.98v9.533zm24.707-5.057a.385.385 0 0 0-.045.028l.001-.001c-.103.073-10.281 7.271-14.245 7.493a2.179 2.179 0 0 1-.12.003c-2.093 0-7.195-2.753-9.307-4.001V20.01c.827.003 2.596.017 4.569.063 1.837.044 3.876.921 5.455 2.346l.141.127h3.888a1.119 1.119 0 0 1 0 2.237h-7.142v.991h7.142a2.1 2.1 0 0 0 1.673-.839l6.984-3.373a1.052 1.052 0 0 1 1.053.06l-.004-.003c.323.202.508.537.508.918a1.087 1.087 0 0 1-.548.943l-.005.003zM16.611 12.159h-.991v.92h.991v-.92zm0 1.833h-.991v.92h.991v-.92zm0 1.835h-.991v.919h.991v-.92z"/>
      </symbol>
      <symbol id="icon-learning" viewBox="0 0 33 32">
        <path  d="M30.175-.128H14.429a1.861 1.861 0 0 0-1.859 1.859V8.25L.872 13.159a.382.382 0 0 0-.051.678l.002.001 1.492.893v9.516A1.722 1.722 0 0 0 .98 25.92v.917c0 .211.17.381.381.381h2.671a.38.38 0 0 0 .381-.381v-.917a1.72 1.72 0 0 0-1.337-1.673v-9.06l1.18.706c-.036.272-.005-.474-.017 4.43 0 1.612 4.129 2.476 8.33 2.525v7.425c0 1.025.832 1.856 1.857 1.856h15.747a1.859 1.859 0 0 0 1.857-1.857c0 .051-.002-1.573 0-28.539a1.87 1.87 0 0 0-1.856-1.859zM3.652 25.918v.537h-1.91v-.537c0-.528.428-.957.953-.957.528 0 .957.43.957.957zm26.523 5.446H14.429c-.378 0-.711-.191-.909-.481a1.081 1.081 0 0 1-.187-.61V27.697h17.934v2.575c0 .596-.497 1.092-1.092 1.092zm1.092-4.429H13.332v-4.086c2.051-.023 8.335-.475 8.335-2.527-.002-3.08.005-4.33-.01-4.436l3.421-2.049a.382.382 0 0 0-.046-.676l-.002-.001-11.698-4.91V5.068h17.935v21.868zm-18.316-9.143c-2.113 0-6.181.273-7.949 1.427.012-3.53-.123-3.3.313-3.6 1.098-.808 4.238-1.373 7.636-1.373 1.483 0 7.954.407 7.954 1.777v3.196c-1.784-1.165-5.832-1.428-7.954-1.428zm.382-16.061A1.096 1.096 0 0 1 14.428.637h15.746c.604 0 1.093.498 1.093 1.095v2.574H13.333V1.732zm-.381 7.184 11.09 4.655-2.748 1.644c-1.461-1.449-6.294-1.729-8.342-1.729-2.051 0-6.883.281-8.342 1.729L1.861 13.57l11.091-4.655zm-7.95 11.406c0-.616 2.73-1.768 7.949-1.768 5.222 0 7.954 1.151 7.954 1.767s-2.732 1.768-7.954 1.768c-5.219 0-7.949-1.151-7.949-1.768z"/>
        <path  d="M22.301 28.271a1.261 1.261 0 0 0 0 2.521 1.261 1.261 0 0 0 0-2.52zm0 1.759a.5.5 0 0 1-.001-.996h.001a.498.498 0 0 1 0 .996zm1.454-27.94h-2.907v.761h2.907V2.09z"/>
      </symbol>
      <symbol id="icon-adv-icon3" viewBox="0 0 31 32">
        <path fill="#ff6b09" style="fill:var(--color1, #ff6b09)" d="M7.942 14.958c0 .165-.25.165-.25 0a6.343 6.343 0 0 1 12.684 0c0 .165-.249.165-.249 0 0-2.367-3.89-2.369-3.89 0 0 .165-.256.165-.256 0 0-2.361-3.896-2.361-3.896 0 0 .165-.256.165-.256 0 0-2.357-3.888-2.373-3.888 0zm3.911-.92c.068-1.362.282-2.584.593-3.517.249-.742.563-1.304.919-1.62a6.097 6.097 0 0 0-5.323 4.949c.921-1.328 3.047-1.222 3.811.189zm4.11-.061c-.069-1.31-.277-2.482-.577-3.376-.772-2.314-1.931-2.314-2.704 0-.299.894-.506 2.066-.576 3.376.831-1.412 3.026-1.412 3.857 0zm4.064-.127a6.094 6.094 0 0 0-5.323-4.949c.358.316.671.879.919 1.62.311.933.526 2.154.593 3.517.768-1.418 2.9-1.502 3.811-.189zm-6.825 4.01v-1.288c-.232.154-.415.392-.415.683 0 .283.186.47.415.605zm.25.4c-.445-.204-.913-.442-.913-1.005 0-.581.442-.871.913-1.089v2.094zm1.415 1.543v1.303c.235-.156.419-.395.419-.686 0-.286-.189-.479-.419-.617zm-.248-.401c.446.206.918.452.918 1.018 0 .582-.445.873-.918 1.089v-2.107z"/>
        <path fill="#ff6b09" style="fill:var(--color1, #ff6b09)" d="M14.867 15.106c1.024.237 2.077 1.003 2.077 2.149 0 .981-1.658.945-1.658 0 0-.292-.184-.531-.419-.686v1.833c.948.31 2.08.865 2.08 2.018 0 1.147-1.053 1.912-2.08 2.147-.004 1.091-1.662 1.09-1.665-.002-.584-.135-1.092-.407-1.458-.768-.385-.381-.612-.858-.612-1.378 0-.966 1.656-.966 1.656 0 0 .289.182.527.415.682V19.27c-.94-.304-2.078-.876-2.078-2.018 0-1.147 1.053-1.912 2.078-2.147.004-1.091 1.662-1.09 1.665.002zm-1.415.003v.199c-.975.193-2.08.818-2.08 1.943 0 1.083 1.213 1.568 2.08 1.836v2.419c-.469-.214-.914-.503-.914-1.087 0-.638-1.159-.638-1.159 0 0 .45.201.867.539 1.199.43.425.951.628 1.533.743v.201c0 .768 1.166.768 1.166 0v-.199c.978-.195 2.078-.819 2.078-1.944 0-1.093-1.21-1.563-2.078-1.837v-2.418c.47.214.918.503.918 1.09 0 .622 1.157.647 1.157 0 0-1.125-1.099-1.75-2.075-1.945v-.201c0-.768-1.166-.768-1.166 0z"/>
        <path fill="none" stroke="#ff6b09" style="stroke:var(--color1, #ff6b09)" stroke-width=".615" d="M31.077 4.615V.307H.308v31.385h30.769v-4.308"/>
      </symbol>
        <symbol id="icon-adw-1" viewBox="0 0 31 32">
        <path fill="#ff6b09" style="fill: var(--color1, #ff6b09)" d="M7.046 26.006c2.185 0 14.824 0 17.006 0 0.084-1.939-0.055-5.157-1.247-6.689l-0.043-0.055-2.606-1.308c0.057-0.191 0.084-0.366 0.096-0.494 0.013-0.154-0.008-0.299-0.063-0.43-0.43-1.029-1.339-1.57-1.84-1.8 0.152-0.307 0.251-0.637 0.298-0.974 0.283-0.080 0.511-0.304 0.586-0.604l0.304-1.236c0.054-0.218 0.020-0.444-0.096-0.636-0.050-0.083-0.114-0.153-0.187-0.212 0.858-1.948-0.579-3.784-0.657-3.881-1.555-1.682-3.52-1.367-3.624-1.349-2.836 0.594-3.93 2.767-3.312 5.316-0.183 0.203-0.26 0.485-0.192 0.762l0.306 1.237c0.074 0.297 0.3 0.521 0.581 0.602 0.087 0.617 0.348 1.175 0.732 1.625v0.979c-4.069 2.084-1.491 0.754-4.752 2.404-0.006 0.031-1.53 1.65-1.304 6.45l0.014 0.293zM23.461 25.39h-2.799v-1.176l1.851-4.238c0.927 1.539 0.962 4.478 0.948 5.413zM19.641 17.407c-0.108 1.241-0.788 0.866-1.208 1.822-0.33-0.363-0.43-0.799-0.341-1.265 0.16-0.856-0.362-1.11-0.233-2.010l0.020-0.021v-0.003c0.011-0.012 0.114-0.135 0.144-0.174 1.107 0.483 1.64 1.381 1.619 1.651zM13.701 16.432c0.514 0.357 1.135 0.567 1.802 0.567 0.629 0 1.226-0.183 1.737-0.52 0.071 0.707 0.347 0.849 0.249 1.369-0.018 0.097-0.028 0.192-0.034 0.285l-1.906 2.148-2.437-2.747 0.588-0.307v-0.796zM12.935 13.803v-1.191c0-0.439 0-2.179 0-2.093 0.297-0.549 0.701-0.947 1.204-1.185 1.346 0.762 2.895 1.898 3.935 3.042-0.001 1.457 0.004 1.461-0.006 1.58l-0.001 0.008c-0.081 1.323-1.169 2.419-2.564 2.419-1.356 0-2.482-1.065-2.563-2.433-0.004-0.049-0.005-0.098-0.005-0.148zM12.555 17.833l2.994 3.376 2.010-2.266c0.046 0.132 0.11 0.257 0.184 0.378l-2.194 2.744-3.272-4.093 0.278-0.14zM18.686 13.307v-0.951c0.027-0.031 0.256-0.293 0.229-0.262 0.013 0.482 0.065-0.087-0.229 1.213zM15.087 6.942c0.122 0.008 1.756-0.249 3.047 1.146 0.051 0.064 1.102 1.418 0.68 2.9-0.145-0.659-0.396-1.504-0.795-1.907l-0.435 0.434c0.393 0.398 0.651 1.611 0.75 2.24-1.803-1.887-4.13-3.082-4.162-3.102-0.117 0.073-1.101 0.26-1.816 1.649l-0.034 0.066v1.021c-0.031 0-0.121 0.001-0.090 0.001-0.454-2.193 0.416-3.936 2.855-4.447zM12.167 12.023l0.155 0.627v0.659l-0.257-1.041c-0.038-0.155 0.077-0.214 0.102-0.245zM11.716 18.254l3.833 4.794 2.594-3.244c0.282 0.253 0.418 0.288 1.016 0.596l-0.202-0.684c-0.051-0.174 0.151-0.452 0.274-0.58 0.273-0.148 0.501-0.36 0.671-0.621l2.116 1.063-1.969 4.508v1.305h-9v-1.305l-1.97-4.507 2.637-1.324zM8.584 19.978l1.851 4.237v1.176h-2.799c-0.014-0.935 0.021-3.872 0.947-5.412z"></path>
        <path fill="none" stroke="#ff6b09" style="stroke: var(--color1, #ff6b09)" stroke-linejoin="miter" stroke-linecap="butt" stroke-miterlimit="4" stroke-width="1.0159" d="M30.387 4.945v-4.183h-29.879v30.476h29.879v-4.183"></path>
      </symbol>
      <symbol id="icon-adw-2" viewBox="0 0 31 32">
         <path fill="#ff6b09" style="fill: var(--color1, #ff6b09)" d="M24.717 5.25h-10.247c-0.667 0-1.21 0.543-1.21 1.21v4.242l-7.613 3.195c-0.086 0.036-0.145 0.118-0.151 0.211s0.040 0.182 0.12 0.23l0.971 0.581v6.192c-0.497 0.113-0.869 0.558-0.869 1.089v0.597c0 0.137 0.111 0.248 0.248 0.248h1.739c0.137 0 0.248-0.111 0.248-0.248v-0.597c0-0.531-0.373-0.975-0.87-1.089v-5.896l0.768 0.459c-0.024 0.177-0.003-0.309-0.011 2.883 0 1.049 2.687 1.611 5.421 1.643v4.832c0 0.25 0.076 0.482 0.207 0.674 0.217 0.322 0.585 0.534 1.002 0.534h10.247c0.666 0 1.209-0.542 1.209-1.209 0 0.033-0.001-1.024 0-18.573 0-0.658-0.544-1.21-1.208-1.21zM7.456 22.201v0.349h-1.243v-0.349c0-0.343 0.278-0.623 0.62-0.623 0.343 0 0.623 0.28 0.623 0.623zM24.717 25.745h-10.247c-0.246 0-0.463-0.124-0.592-0.313-0.077-0.114-0.122-0.251-0.122-0.398v-1.675h11.672v1.676c0 0.388-0.324 0.711-0.711 0.711zM25.428 22.862h-11.672v-2.659c1.335-0.015 5.424-0.309 5.424-1.645-0.001-2.005 0.004-2.818-0.006-2.887l2.226-1.334c0.080-0.048 0.126-0.137 0.12-0.23s-0.065-0.175-0.151-0.211l-7.613-3.195v-2.071h11.672v14.232zM13.508 16.912c-1.375 0-4.023 0.178-5.173 0.929 0.007-2.297-0.080-2.148 0.203-2.343 0.715-0.526 2.758-0.893 4.97-0.893 0.965 0 5.176 0.265 5.176 1.157v2.080c-1.161-0.758-3.795-0.929-5.176-0.929zM13.756 6.46c0-0.393 0.32-0.713 0.713-0.713h10.247c0.393 0 0.712 0.324 0.712 0.713v1.675h-11.672v-1.675zM13.508 11.135l7.217 3.029-1.788 1.070c-0.951-0.943-4.096-1.126-5.429-1.126-1.335 0-4.48 0.183-5.429 1.126l-1.789-1.070 7.218-3.029zM8.335 18.558c0-0.401 1.777-1.15 5.173-1.15 3.399 0 5.176 0.749 5.176 1.15s-1.778 1.151-5.176 1.151c-3.396 0-5.173-0.749-5.173-1.151z"></path>
         <path fill="#ff6b09" style="fill: var(--color1, #ff6b09)" d="M19.593 23.732c-0.452 0-0.82 0.368-0.82 0.82s0.368 0.82 0.82 0.82c0.452 0 0.82-0.368 0.82-0.82s-0.368-0.82-0.82-0.82zM19.593 24.877c-0.179 0-0.324-0.146-0.324-0.324s0.145-0.324 0.324-0.324c0.179 0 0.324 0.145 0.324 0.324s-0.145 0.324-0.324 0.324z"></path>
        <path fill="#ff6b09" style="fill: var(--color1, #ff6b09)" d="M20.539 6.693h-1.891v0.496h1.891v-0.496z"></path>
        <path fill="none" stroke="#ff6b09" style="stroke: var(--color1, #ff6b09)" stroke-linejoin="miter" stroke-linecap="butt" stroke-miterlimit="4" stroke-width="1.0159" d="M30.387 4.945v-4.183h-29.879v30.476h29.879v-4.183"></path>
      </symbol>
      <symbol id="icon-adw-3" viewBox="0 0 31 32">
        <path fill="#ff6b09" style="fill: var(--color1, #ff6b09)" d="M6.947 14.566c0 0.227-0.344 0.227-0.344 0 0-4.818 3.907-8.725 8.725-8.725 4.82 0 8.725 3.907 8.725 8.725 0 0.227-0.342 0.227-0.342 0 0-3.256-5.351-3.258-5.351 0 0 0.227-0.352 0.227-0.352 0 0-3.248-5.36-3.248-5.36 0 0 0.227-0.352 0.227-0.352 0 0-3.242-5.349-3.265-5.349 0zM12.327 13.302c0.093-1.874 0.387-3.555 0.816-4.838 0.342-1.020 0.774-1.794 1.265-2.229-3.679 0.402-6.657 3.191-7.322 6.808 1.267-1.827 4.192-1.681 5.242 0.26zM17.981 13.217c-0.095-1.802-0.381-3.415-0.793-4.645-1.063-3.182-2.657-3.182-3.72 0-0.412 1.23-0.696 2.842-0.793 4.645 1.143-1.942 4.163-1.942 5.306 0zM23.571 13.042c-0.663-3.617-3.642-6.406-7.322-6.808 0.492 0.435 0.923 1.209 1.265 2.229 0.428 1.283 0.723 2.964 0.816 4.838 1.057-1.951 3.99-2.066 5.242-0.26z"></path>
        <path fill="#ff6b09" style="fill: var(--color1, #ff6b09)" d="M14.183 18.559v-1.772c-0.319 0.212-0.571 0.54-0.571 0.939 0 0.389 0.255 0.647 0.571 0.832zM14.527 19.109c-0.612-0.28-1.256-0.608-1.256-1.382 0-0.799 0.608-1.199 1.256-1.498v2.88z"></path>
        <path fill="#ff6b09" style="fill: var(--color1, #ff6b09)" d="M16.473 21.232v1.792c0.323-0.214 0.577-0.544 0.577-0.943 0-0.393-0.26-0.659-0.577-0.849zM16.131 20.68c0.614 0.284 1.263 0.622 1.263 1.401 0 0.801-0.612 1.201-1.263 1.497v-2.898z"></path>
        <path fill="#ff6b09" style="fill: var(--color1, #ff6b09)" d="M16.473 14.77c1.409 0.325 2.857 1.38 2.857 2.956 0 1.349-2.28 1.3-2.28 0 0-0.402-0.253-0.731-0.577-0.943v2.521c1.304 0.426 2.861 1.191 2.861 2.777 0 1.578-1.448 2.63-2.861 2.954-0.006 1.502-2.286 1.5-2.29-0.002-0.803-0.185-1.502-0.56-2.006-1.057-0.529-0.523-0.842-1.18-0.842-1.895 0-1.329 2.278-1.329 2.278 0 0 0.398 0.251 0.725 0.571 0.937v-2.519c-1.293-0.418-2.859-1.205-2.859-2.777 0-1.578 1.448-2.63 2.859-2.954 0.006-1.502 2.286-1.5 2.29 0.002zM14.527 14.774v0.274c-1.341 0.266-2.861 1.125-2.861 2.674 0 1.489 1.668 2.157 2.861 2.525v3.329c-0.645-0.295-1.256-0.692-1.256-1.495 0-0.878-1.594-0.878-1.594 0 0 0.62 0.276 1.193 0.742 1.65 0.591 0.585 1.308 0.863 2.109 1.022v0.276c0 1.057 1.605 1.057 1.605 0v-0.274c1.345-0.268 2.859-1.127 2.859-2.674 0-1.504-1.664-2.15-2.859-2.527v-3.327c0.647 0.295 1.263 0.692 1.263 1.5 0 0.855 1.592 0.89 1.592 0 0-1.547-1.512-2.408-2.855-2.676v-0.276c0-1.057-1.605-1.057-1.605 0z"></path>
        <path fill="none" stroke="#ff6b09" style="stroke: var(--color1, #ff6b09)" stroke-linejoin="miter" stroke-linecap="butt" stroke-miterlimit="4" stroke-width="1.0159" d="M30.387 4.945v-4.183h-29.879v30.476h29.879v-4.183"></path>
      </symbol>
      <symbol id="icon-audio-book" viewBox="0 0 39 32">
        <path  d="M3.047 29.453h12.23a3.743 3.743 0 0 0 3.367 2.115h.801a3.737 3.737 0 0 0 3.356-2.093l.01-.022h12.237a2.288 2.288 0 0 0 2.286-2.286V5.262a2.288 2.288 0 0 0-2.286-2.285h-1.234V1.956A1.525 1.525 0 0 0 32.29.433H5.799a1.524 1.524 0 0 0-1.523 1.523v1.021H3.049A2.289 2.289 0 0 0 .762 5.262v21.905a2.288 2.288 0 0 0 2.287 2.286zm29.24-4.702H19.81V7.046c2.884.377 5.12 2.845 5.12 5.831v.687l-.18-.04a.763.763 0 0 0-.907.575l-.001.005-1.213 5.52a.763.763 0 0 0 .575.906l.005.001 2.621.578a1.946 1.946 0 0 0 2.319-1.492l.701-3.192a1.954 1.954 0 0 0-1.471-2.321l-.013-.003-.912-.201v-1.023c0-3.827-2.917-6.987-6.645-7.371V1.955h12.48l-.001 22.796zm-7.12-9.574 1.871.412a.422.422 0 0 1 .325.508l-.701 3.191a.45.45 0 0 1-.507.331l-1.873-.413.886-4.029zM5.798 1.955h12.487v3.55c-3.731.381-6.651 3.542-6.651 7.372v1.022l-.913.202a1.95 1.95 0 0 0-1.219.846l-.005.008a1.91 1.91 0 0 0-.257 1.482l-.003-.013.701 3.189a1.961 1.961 0 0 0 2.339 1.493l-.013.002 2.61-.577a.764.764 0 0 0 .579-.912l.001.005-1.213-5.519a.76.76 0 0 0-.914-.579l.005-.001-.173.038v-.685c0-2.988 2.24-5.458 5.127-5.832v17.707H5.799V1.956zm7.118 13.222.887 4.029-1.863.411a.431.431 0 0 1-.51-.325l-.001-.003-.702-3.196a.42.42 0 0 1 .056-.321l-.001.002a.427.427 0 0 1 .264-.186l.003-.001 1.867-.412zM2.285 5.262c0-.42.342-.762.762-.762h1.227v20.251a1.526 1.526 0 0 0 1.524 1.524h26.491a1.525 1.525 0 0 0 1.524-1.523V4.5h1.234c.42 0 .762.342.762.762v21.905c0 .42-.341.762-.762.762H22.293a.763.763 0 0 0-.729.539 2.226 2.226 0 0 1-2.126 1.577h-.784a2.23 2.23 0 0 1-2.13-1.571l-.004-.016a.762.762 0 0 0-.725-.529H3.048a.763.763 0 0 1-.763-.762V5.262z"/>
      </symbol>
      <symbol id="icon-student" viewBox="0 0 27 32">
        <path  d="M-.102 31.759h26.785c.132-3.055-.087-8.123-1.965-10.535l-.068-.087-4.103-2.06c.089-.301.133-.576.151-.779a1.43 1.43 0 0 0-.1-.678c-.677-1.62-2.11-2.472-2.898-2.835.24-.484.395-1.003.47-1.534.456-.131.805-.489.921-.942l.002-.009.479-1.947a1.306 1.306 0 0 0-.154-1.007l.003.006a1.316 1.316 0 0 0-.292-.332l-.002-.002c1.351-3.068-.911-5.96-1.035-6.113C15.642.257 12.547.752 12.384.782c-4.467.935-6.19 4.358-5.217 8.372a1.31 1.31 0 0 0-.301 1.21l-.002-.009.481 1.949c.117.468.473.82.916.947a5.01 5.01 0 0 0 1.158 2.567l-.006-.007v1.543c-6.409 3.282-2.348 1.188-7.484 3.787-.01.048-2.41 2.599-2.053 10.158l.022.462zm25.853-.97h-4.408v-1.852l2.915-6.675c1.461 2.425 1.515 7.053 1.493 8.527zm-6.016-12.573c-.17 1.955-1.242 1.364-1.903 2.869-.52-.572-.677-1.258-.537-1.993.253-1.349-.57-1.749-.367-3.166l.031-.032v-.005c.017-.02.18-.213.227-.274 1.745.76 2.584 2.174 2.55 2.6zm-9.356-1.535a4.927 4.927 0 0 0 2.842.894 4.94 4.94 0 0 0 2.75-.831l-.018.011c.112 1.113.547 1.337.393 2.157a3.552 3.552 0 0 0-.054.44v.01l-3.003 3.383-3.837-4.327.927-.483v-1.254zm-1.207-4.142V7.367c.467-.864 1.104-1.491 1.896-1.867 2.12 1.2 4.56 2.99 6.197 4.792-.001 2.294.007 2.3-.009 2.489l-.001.012c-.127 2.084-1.84 3.811-4.037 3.811-2.136 0-3.909-1.677-4.037-3.831a2.716 2.716 0 0 1-.008-.21v-.024.001zm-.598 6.347 4.716 5.317 3.167-3.569c.072.209.173.405.29.596l-3.457 4.322-5.153-6.446.437-.22zm9.657-7.127v-1.498l.36-.413c.02.759.101-.136-.36 1.911zM12.562 1.733c.191.012 2.765-.391 4.799 1.805.08.1 1.736 2.233 1.071 4.567-.227-1.039-.624-2.369-1.251-3.004l-.685.683c.619.627 1.025 2.537 1.18 3.527-2.84-2.972-6.504-4.853-6.554-4.885-.184.114-1.735.409-2.86 2.598l-.054.104v1.608l-.142.001c-.716-3.455.655-6.199 4.497-7.004zM7.963 9.735l.244.987v1.038l-.405-1.64c-.059-.244.121-.337.161-.385zm-.71 9.815 6.037 7.551 4.085-5.109c.444.398.658.454 1.6.939l-.318-1.078c-.08-.273.239-.713.431-.914.434-.238.79-.568 1.051-.966l.007-.011 3.333 1.673-3.101 7.1v2.055H6.201v-2.056l-3.102-7.099 4.153-2.085zm-4.932 2.715 2.916 6.673v1.851H.828c-.023-1.473.032-6.1 1.492-8.525z"/>
      </symbol>
    </defs>
  </svg>
