<svg width="405" height="472" viewBox="0 0 405 472" fill="none" xmlns="http://www.w3.org/2000/svg">
<g clip-path="url(#clip0_1_3448)">
<path d="M426.719 322.005C421.209 309.679 413.608 297.542 402.491 283.522C374.463 248.332 365.912 169.86 365.817 169.108C365.437 165.344 362.777 162.239 359.261 161.11C355.651 159.981 351.756 161.016 349.19 163.838C315.746 201.193 329.808 258.87 337.409 281.923C339.499 288.227 341.779 295.66 343.394 303.187C355.745 364.064 331.897 391.633 326.292 397.184C320.876 398.689 317.171 397.937 313.75 394.267C301.969 381.377 298.073 339.13 303.584 284.087C304.725 272.89 304.439 262.822 302.824 253.413C291.202 185.759 248.59 142.362 237.741 127.143C207.908 83.1085 204.867 9.81165 204.772 9.15302C204.677 5.67165 202.682 2.56665 199.547 1.0612C196.506 -0.444256 192.801 -0.256073 189.951 1.71984C140.165 35.4985 144.44 116.887 151.376 162.333C152.991 172.871 156.127 183.598 161.542 197.147C180.83 245.604 157.742 308.174 157.552 308.739C157.362 309.303 157.172 309.773 157.077 310.338C154.132 325.769 149.191 334.99 143.68 334.99C143.11 334.99 142.54 334.896 141.875 334.708C135.129 333.296 131.614 326.145 131.519 319.935C131.139 239.676 50.4744 212.672 49.6193 212.389C46.0089 211.26 42.0185 212.295 39.5482 215.212C36.9829 218.129 36.5078 222.175 38.218 225.562C39.1681 227.538 42.2085 236.194 40.1182 266.774C38.313 294.249 33.2774 321.441 25.2015 347.504C6.00925 409.98 9.0496 469.164 9.23962 471.986C23.9977 632.23 254.785 660.308 391.754 570.029C406.766 560.149 419.022 548.859 428.048 536.439C478.595 466.811 448.857 372.25 426.719 322.005ZM75.6533 475.091C75.9384 480.266 71.9479 484.689 66.7223 484.971H66.1522C61.1166 484.971 56.9361 481.113 56.6511 476.126C55.796 462.389 55.986 447.993 57.0311 432.374C57.4112 427.199 61.9717 423.341 67.1973 423.623C72.4229 423.999 76.4134 428.515 76.0334 433.69C74.9873 448.558 74.7982 462.107 75.6533 475.091ZM80.3079 391.727C79.7378 396.525 75.6524 400.007 70.9018 400.007C70.5218 400.007 70.1417 400.007 69.6667 399.913C64.5361 399.254 60.8306 394.644 61.4007 389.469L65.9612 353.149C66.6263 348.069 71.2819 344.399 76.6025 344.964C81.8281 345.622 85.5335 350.327 84.8684 355.502L80.3079 391.727Z" fill="#3D3D3D"/>
<path d="M362.44 128.726C357.258 127.931 353.705 123.135 354.503 118.003C355.096 114.18 358.529 94.6092 367.845 84.7683C371.431 80.9736 377.434 80.776 381.276 84.3411C385.103 87.8921 385.297 93.8471 381.707 97.6418C377.764 101.809 374.404 113.735 373.282 120.871C372.481 125.948 367.699 129.511 362.44 128.726Z" fill="#3D3D3D"/>
<path d="M16.0673 175.594C14.2487 168.597 9.73002 157.056 5.39276 153.289C1.44505 149.861 1.05075 143.917 4.51105 140.012C7.96281 136.098 13.9609 135.698 17.9181 139.139C28.1565 148.028 33.5056 167.173 34.4757 170.917C35.7745 175.948 32.7132 181.066 27.6377 182.361C22.4501 183.653 17.3604 180.541 16.0673 175.594Z" fill="#3D3D3D"/>
</g>
<defs>
<clipPath id="clip0_1_3448">
<rect width="456.053" height="472" fill="white" transform="translate(0.947266)"/>
</clipPath>
</defs>
</svg>
